<svg xmlns="http://www.w3.org/2000/svg" width="1600" height="1000" viewBox="0 0 1600 1000">
  <rect width="1600" height="1000" fill="none"/>
  <g fill="#8d6bff" fill-opacity="0.18">
    <circle cx="220" cy="220" r="4"/>
    <circle cx="380" cy="160" r="3"/>
    <circle cx="520" cy="260" r="2"/>
    <circle cx="980" cy="180" r="3"/>
    <circle cx="1220" cy="260" r="4"/>
    <circle cx="1380" cy="140" r="2"/>
    <circle cx="260" cy="720" r="3"/>
    <circle cx="520" cy="820" r="2"/>
    <circle cx="980" cy="760" r="3"/>
    <circle cx="1280" cy="700" r="2"/>
  </g>
  <g fill="none" stroke="#8d6bff" stroke-opacity="0.12" stroke-width="1.5">
    <path d="M120 520c120-120 280-180 460-180"/>
    <path d="M1060 620c140-40 300-20 420 60"/>
  </g>
  <g fill="#8d6bff" fill-opacity="0.08">
    <path d="M1120 420c0 88-72 160-160 160s-160-72-160-160 72-160 160-160 160 72 160 160z"/>
    <path d="M1080 420c0 66-54 120-120 120s-120-54-120-120 54-120 120-120 120 54 120 120z"/>
  </g>
</svg>
