<svg xmlns="http://www.w3.org/2000/svg" width="1600" height="1000" viewBox="0 0 1600 1000">
  <rect width="1600" height="1000" fill="none"/>
  <g fill="#7c2d12" fill-opacity="0.08">
    <path d="M140 780c120-120 260-200 420-240 120-30 240-30 360 0 160 40 300 120 420 240-120 40-260 80-420 80-160 0-300-40-420-80-120-40-240-80-360-80z"/>
  </g>
  <g fill="#1b6b4f" fill-opacity="0.08">
    <path d="M180 260c140-120 300-160 460-140 140 20 260 80 380 160 140 90 260 210 400 360-140-20-280-40-420-60-160-20-300-60-420-120-120-60-240-140-400-200z"/>
  </g>
  <g fill="#b45309" fill-opacity="0.06">
    <circle cx="1320" cy="200" r="120"/>
  </g>
</svg>
